# xmcd CD database file
#
# Track frame offsets:
#	150
#	49636
#	71309
#	89505
#	107086
#	129764
#	147184
#	165282
#
# Disc length: 2401 seconds
#
# Revision: 2
# Processed by: cddbd v1.5.1PL0 Copyright (c) Steve Scherf et al.
# Submitted via: CDex 1.50beta9
#
DISCID=5d095f08
DTITLE=Eros Ramazotti - Musica
DYEAR=1988
DGENRE=Blues
TTITLE0=Musica  e'
TTITLE1=La Luce Buona Delle Stelle (remix)
TTITLE2=Ti Sposer  Perch
TTITLE3=In Segno D'Amicizia
TTITLE4=Solo Con Te
TTITLE5=Uno Di Noi
TTITLE6=Voglio Volare
TTITLE7=Occhi Di Speranza (remix)
EXTD=YEAR: 1988
EXTT0=
EXTT1=
EXTT2=
EXTT3=
EXTT4=
EXTT5=
EXTT6=
EXTT7=
PLAYORDER=
